HIERARCHY
ROOT Hips
{
	OFFSET 0.00000 0.00000 0.00000
	CHANNELS 6 Xposition Yposition Zposition Zrotation Yrotation Xrotation 
	JOINT LHipJoint
	{
		OFFSET 0 0 0
		CHANNELS 3 Zrotation Yrotation Xrotation
		JOINT LeftHip
		{
			OFFSET 1.57358 -1.76629 0.73362
			CHANNELS 3 Zrotation Yrotation Xrotation
			JOINT LeftKnee
			{
				OFFSET 2.40600 -6.61045 0.00000
				CHANNELS 3 Zrotation Yrotation Xrotation
				JOINT LeftAnkle
				{
					OFFSET 2.66168 -7.31291 0.00000
					CHANNELS 3 Zrotation Yrotation Xrotation
					JOINT LeftToe
					{
						OFFSET 0.20870 -0.57341 2.12506
						CHANNELS 3 Zrotation Yrotation Xrotation
						End Site
						{
							OFFSET 0.00000 -0.00000 1.10557
						}
					}
				}
			}
		}
	}
	JOINT RHipJoint
	{
		OFFSET 0 0 0
		CHANNELS 3 Zrotation Yrotation Xrotation
		JOINT RightHip
		{
			OFFSET -1.49299 -1.76629 0.73362
			CHANNELS 3 Zrotation Yrotation Xrotation
			JOINT RightKnee
			{
				OFFSET -2.43663 -6.69460 0.00000
				CHANNELS 3 Zrotation Yrotation Xrotation
				JOINT RightAnkle
				{
					OFFSET -2.62959 -7.22474 0.00000
					CHANNELS 3 Zrotation Yrotation Xrotation
					JOINT RightToe
					{
						OFFSET -0.25784 -0.70841 2.21862
						CHANNELS 3 Zrotation Yrotation Xrotation
						End Site
						{
							OFFSET -0.00000 -0.00000 1.16452
						}
					}
				}
			}
		}
	}
	JOINT lowerback
	{
		OFFSET 0 0 0
		CHANNELS 3 Zrotation Yrotation Xrotation
		JOINT Chest
		{
			OFFSET -0.00034 2.12399 -0.25450
			CHANNELS 3 Zrotation Yrotation Xrotation
			JOINT Chest2
			{
				OFFSET 0.05594 2.14379 -0.03318
				CHANNELS 3 Zrotation Yrotation Xrotation
				JOINT lowerneck
				{
					OFFSET 0 0 0
					CHANNELS 3 Zrotation Yrotation Xrotation
					JOINT Neck
					{
						OFFSET -0.09835 1.62725 0.24211
						CHANNELS 3 Zrotation Yrotation Xrotation
						JOINT Head
						{
							OFFSET 0.10849 1.66041 -0.22648
							CHANNELS 3 Zrotation Yrotation Xrotation
							End Site
							{
								OFFSET 0.04385 1.68267 -0.10541
							}
						}
					}
				}
				JOINT LeftCollar
				{
					OFFSET 0 0 0
					CHANNELS 3 Zrotation Yrotation Xrotation
					JOINT LeftShoulder
					{
						OFFSET 3.29108 0.79398 -0.68179
CHANNELS 3 Zrotation Xrotation Yrotation
						JOINT LeftElbow
						{
OFFSET 0 -5.153100 -0.000000
CHANNELS 3 Zrotation Xrotation Yrotation
							JOINT LeftWrist
							{
OFFSET 0 -3.751380 -0.000000
CHANNELS 3 Zrotation Xrotation Yrotation
								JOINT lhand
								{
									OFFSET 0 0 0
CHANNELS 3 Zrotation Xrotation Yrotation
									JOINT LFingers
									{
OFFSET 0 -0.529170 0.000000
CHANNELS 3 Zrotation Xrotation Yrotation
										End Site
										{
OFFSET 0 -0.426630 0.000000
										}
									}
								}
								JOINT LThumb
								{
OFFSET 0 0.000000 0.000000
CHANNELS 3 Zrotation Xrotation Yrotation
									End Site
									{
OFFSET 0 -0.433150 0.433150
									}
								}
							}
						}
					}
				}
				JOINT RightCollar
				{
					OFFSET 0 0 0
					CHANNELS 3 Zrotation Yrotation Xrotation
					JOINT RightShoulder
					{
						OFFSET -3.07414 1.06285 -0.44338
CHANNELS 3 Zrotation Xrotation Yrotation
						JOINT RightElbow
						{
OFFSET 0 -5.296130 0.000000
CHANNELS 3 Zrotation Xrotation Yrotation
							JOINT RightWrist
							{
OFFSET 0 -3.761440 -0.000000
CHANNELS 3 Zrotation Xrotation Yrotation
								JOINT rhand
								{
									OFFSET 0 0 0
CHANNELS 3 Zrotation Xrotation Yrotation
									JOINT RFingers
									{
OFFSET 0 -0.747320 0.000000
CHANNELS 3 Zrotation Xrotation Yrotation
										End Site
										{
OFFSET 0 -0.602510 0.000000
										}
									}
								}
								JOINT RThumb
								{
OFFSET 0 0.000000 0.000000
CHANNELS 3 Zrotation Xrotation Yrotation
									End Site
									{
OFFSET 0 -0.611710 0.611710
									}
								}
							}
						}
					}
				}
			}
		}
	}
}
MOTION
Frames: 4
Frame Time: 0.008333333333333333
-9.187400 16.834200 -32.424300 5.564900 2.115900 7.843800 0.000000 0.000000 0.000000 -28.639300 -3.072000 10.185300 2.687500 10.171100 29.532500 0.030000 -9.646800 14.238800 1.127700 -6.745100 -18.962500 0.000000 0.000000 0.000000 11.745900 13.384600 -41.791400 -3.259300 -11.103400 32.629500 0.054000 -4.633500 0.573600 -0.059300 -1.571300 4.322400 -8.145800 -5.966800 1.271700 5.820500 -8.115600 -3.955300 10.943700 -3.775100 -2.889300 -14.251400 1.276600 -10.397000 2.132300 3.856800 17.106500 3.340800 1.120400 6.675900 0.000000 -0.000000 0.000000 0.142400 -2.419800 -10.854200 25.237000 -36.445200 8.430300 20.352900 10.360900 -28.827400 0.000000 0.000000 0.000000 -7.125000 0.000000 0.000000 -12.091000 59.986500 4.460800 0.000000 -0.000000 0.000000 -7.949800 17.057900 1.496500 -8.478300 -14.325100 -1.067300 -13.990800 22.650600 -12.094100 0.000000 0.000000 0.000000 7.125000 0.000000 -0.000000 9.199100 17.622900 6.061300
-9.197783 16.846361 -32.315905 5.530923 2.545642 5.360411 0.000000 0.000000 0.000000 -28.442670 -2.202618 12.337201 2.769635 10.310482 29.989997 0.204773 -9.408436 16.239037 1.041364 -6.481122 -18.190120 0.000000 0.000000 0.000000 12.509553 12.633269 -38.786681 -3.335415 -11.217855 33.019770 0.061717 -4.749652 0.104265 -0.082571 -1.827117 5.028927 -8.248337 -5.658341 3.885017 5.509496 -7.884306 -3.158276 10.938206 -3.638021 -3.604917 -13.980837 1.021551 -10.738305 2.157227 3.518364 17.264184 3.288198 0.968897 6.816656 0.000000 0.000000 0.000000 0.315517 -2.657841 -11.324908 25.167470 -36.374499 8.389091 20.467395 10.196267 -28.231288 0.000000 0.000000 0.000000 -7.125000 0.000000 0.000000 -11.622150 59.417012 4.135938 0.000000 0.000000 0.000000 -7.439742 16.849715 0.826778 -8.548234 -14.437454 -1.084793 -13.775384 22.595291 -12.607956 0.000000 0.000000 0.000000 7.125000 0.000000 0.000000 9.340906 17.117649 6.264233
-9.208166 16.858521 -32.207510 5.496946 2.975384 2.877023 0.000000 0.000000 0.000000 -28.246040 -1.333236 14.489102 2.851769 10.449865 30.447494 0.379547 -9.170072 18.239274 0.955028 -6.217144 -17.417740 0.000000 0.000000 0.000000 13.273207 11.881938 -35.781962 -3.411530 -11.332310 33.410041 0.069433 -4.865804 -0.365069 -0.105842 -2.082934 5.735454 -8.350874 -5.349882 6.498334 5.198491 -7.653012 -2.361251 10.932711 -3.500941 -4.320534 -13.710273 0.766501 -11.079610 2.182154 3.179927 17.421868 3.235597 0.817395 6.957412 0.000000 0.000000 0.000000 0.488634 -2.895881 -11.795616 25.097941 -36.303798 8.347883 20.581891 10.031635 -27.635176 0.000000 0.000000 0.000000 -7.125000 0.000000 0.000000 -11.153301 58.847524 3.811076 0.000000 0.000000 0.000000 -6.929683 16.641531 0.157056 -8.618167 -14.549809 -1.102287 -13.559967 22.539983 -13.121812 0.000000 0.000000 0.000000 7.125000 0.000000 0.000000 9.482713 16.612398 6.467165
-9.216365 16.869473 -32.097716 5.480079 2.952866 1.638340 0.000000 0.000000 0.000000 -28.196721 -0.892431 15.136085 3.017397 10.713215 31.329328 0.559302 -8.888986 19.976776 0.868288 -5.932727 -16.591825 0.000000 0.000000 0.000000 13.744930 11.655950 -34.155480 -3.483383 -11.438518 33.774339 0.070238 -4.804262 -0.661098 -0.113126 -2.167503 5.968900 -8.434689 -5.093537 7.758158 5.029286 -7.400792 -1.931552 10.916785 -3.366427 -4.649617 -13.542879 0.612161 -11.271716 2.209223 2.968957 17.506701 3.205830 0.724792 7.036682 0.000000 0.000000 0.000000 0.542892 -2.992017 -12.062149 25.039945 -36.244715 8.313565 20.857034 9.888564 -27.154531 0.000000 0.000000 0.000000 -7.125000 0.000000 0.000000 -10.589678 58.426726 3.507586 0.000000 0.000000 0.000000 -6.633892 16.484273 -0.109743 -8.694546 -14.672255 -1.121604 -13.483806 22.378834 -13.199437 0.000000 0.000000 0.000000 7.125000 0.000000 0.000000 9.534262 16.538842 6.517549
